<svg width="64" height="50" viewBox="0 0 64 50" fill="none" xmlns="http://www.w3.org/2000/svg">
<g clip-path="url(#clip0_3_461)">
<path d="M11.7102 49.3259V46.0464C11.7836 44.971 10.9726 44.0397 9.89896 43.9652H9.65505C9.29364 43.9418 8.93259 44.0158 8.60974 44.1795C8.28689 44.3432 8.01414 44.5905 7.82008 44.8955C7.64299 44.599 7.38861 44.3559 7.08402 44.192C6.77942 44.0282 6.436 43.9498 6.09029 43.9652C5.78884 43.9502 5.4887 44.0142 5.21976 44.1509C4.95082 44.2876 4.72247 44.4921 4.55743 44.7442V44.0929H3.39603V49.3254H4.55743V46.4536C4.53443 46.2939 4.54327 46.1314 4.58344 45.9751C4.62361 45.8189 4.69431 45.6722 4.7915 45.5433C4.88854 45.4148 5.01019 45.3068 5.1494 45.2256C5.28862 45.1443 5.44261 45.0915 5.60246 45.0701H5.83474C6.58931 45.0701 6.99569 45.558 6.99569 46.4536V49.3603H8.15709V46.4536C8.11367 46.1304 8.20053 45.8032 8.39861 45.5437C8.5967 45.2843 8.88984 45.1138 9.21376 45.0696H9.4344C10.2123 45.0696 10.5958 45.558 10.5958 46.4536V49.3603L11.7102 49.3259ZM28.6993 44.0929H26.8294V42.5116H25.668V44.1045H24.6346V45.1397H25.6913V47.5464C25.6913 48.7094 26.1559 49.4884 27.503 49.4884C28.0042 49.4883 28.4951 49.3472 28.9195 49.0812L28.5946 48.1045C28.2881 48.2855 27.9405 48.3857 27.5844 48.3955C27.0384 48.3955 26.8294 48.0464 26.8294 47.5232V45.1393H28.6872L28.6993 44.0929ZM38.3951 43.9652C38.1168 43.9569 37.8415 44.0238 37.5982 44.1589C37.355 44.294 37.153 44.4923 37.0135 44.7326V44.0929H35.8521V49.3254H37.0135V46.3955C37.0135 45.5348 37.3849 45.0464 38.1051 45.0464C38.3472 45.0425 38.5878 45.0861 38.8131 45.1746L39.1617 44.0812C38.9006 43.9889 38.6256 43.9418 38.3485 43.942L38.3951 43.9652ZM23.7288 44.5116C23.0841 44.1282 22.3422 43.9385 21.5922 43.9652C20.2688 43.9652 19.4095 44.6045 19.4095 45.6393C19.4095 46.4884 20.0481 47.0232 21.2091 47.1862L21.7551 47.2674C22.3816 47.3603 22.6726 47.5232 22.6726 47.8138C22.6726 48.1045 22.2541 48.4536 21.5112 48.4536C20.8854 48.4723 20.2716 48.2798 19.7693 47.9071L19.2233 48.7911C19.886 49.2525 20.68 49.4888 21.4879 49.4652C22.9975 49.4652 23.8684 48.7558 23.8684 47.7558C23.8684 46.7558 23.1832 46.3487 22.0451 46.1862L21.4991 46.1045C21.0117 46.0348 20.6169 45.942 20.6169 45.5929C20.6169 45.2442 20.9884 44.9768 21.6154 44.9768C22.1913 44.9854 22.7552 45.1416 23.253 45.4304L23.7288 44.5116ZM54.1879 43.9652C53.9095 43.9568 53.6341 44.0237 53.3908 44.1588C53.1475 44.2939 52.9453 44.4922 52.8058 44.7326V44.0929H51.6449V49.3254H52.8058V46.3955C52.8058 45.5348 53.1773 45.0464 53.8974 45.0464C54.1397 45.0425 54.3804 45.086 54.6059 45.1746L54.9541 44.0812C54.6931 43.989 54.4182 43.9419 54.1413 43.942L54.1879 43.9652ZM39.5332 46.6973C39.5191 47.0448 39.5739 47.3916 39.6943 47.7179C39.8147 48.0442 39.9984 48.3437 40.235 48.5991C40.4708 48.854 40.755 49.0597 41.071 49.2043C41.387 49.349 41.7287 49.4298 42.0762 49.442H42.3201C43.004 49.4761 43.6757 49.2518 44.2012 48.8138L43.6552 47.8955C43.2601 48.1923 42.7802 48.3552 42.2857 48.3603C41.8754 48.3111 41.4974 48.1135 41.2234 47.805C40.9494 47.4964 40.7983 47.0984 40.7989 46.6862C40.7982 46.274 40.9492 45.8758 41.2231 45.5672C41.497 45.2586 41.8749 45.0609 42.2852 45.0116C42.7801 45.0167 43.2603 45.1797 43.6556 45.4768L44.2016 44.558C43.6759 44.1202 43.0041 43.896 42.3201 43.9304C41.9736 43.91 41.6266 43.9583 41.2989 44.0723C40.9712 44.1864 40.6694 44.3641 40.4109 44.5951C39.8875 45.0628 39.5718 45.7188 39.5332 46.4187V46.6973ZM50.1814 46.6973V44.0929H49.0204V44.7326C48.8281 44.4842 48.5793 44.285 48.2946 44.1514C48.0098 44.0179 47.6973 43.9539 47.3828 43.9647C45.8728 43.9647 44.6483 45.1911 44.6483 46.7036C44.6483 48.2161 45.8728 49.442 47.3828 49.442C47.6973 49.4528 48.0098 49.3888 48.2946 49.2553C48.5793 49.1217 48.8281 48.9225 49.0204 48.6741V49.3138H50.1814V46.6973ZM45.9547 46.6973C45.9707 46.2877 46.147 45.9007 46.4457 45.6192C46.7445 45.3378 47.142 45.1844 47.5529 45.192C47.9638 45.2012 48.3548 45.3707 48.6418 45.6642C48.9289 45.9576 49.0893 46.3516 49.0884 46.7616C49.0893 47.1715 48.929 47.5655 48.642 47.8589C48.355 48.1523 47.9642 48.3219 47.5533 48.3312C47.1423 48.3389 46.7447 48.1855 46.4458 47.904C46.1469 47.6224 45.9705 47.2352 45.9547 46.8254C45.9547 46.8254 46.0012 46.7442 46.0012 46.6978L45.9547 46.6973ZM32.2291 43.9652C31.7486 43.9727 31.2785 44.1065 30.8663 44.3531C30.4541 44.5997 30.1143 44.9503 29.8813 45.3696C29.6474 45.7897 29.528 46.2637 29.535 46.7442C29.5421 47.2247 29.6754 47.695 29.9216 48.108C30.167 48.5203 30.5171 48.8607 30.9365 49.095C31.356 49.3292 31.83 49.4489 32.3106 49.442C33.0975 49.4824 33.8714 49.2294 34.4817 48.7321L33.9357 47.8839C33.5042 48.2304 32.9688 48.4228 32.4149 48.4304C32.0381 48.4627 31.6635 48.3471 31.3707 48.1083C31.0779 47.8695 30.8901 47.5261 30.8471 47.1513H34.7256V46.7094C34.7598 46.3629 34.721 46.0131 34.6115 45.6825C34.5021 45.3518 34.3244 45.0478 34.0901 44.7897C33.8563 44.5324 33.5708 44.327 33.2522 44.1869C32.9336 44.0468 32.589 43.9753 32.2408 43.9768L32.2291 43.9652ZM32.2291 44.9884C32.5728 44.9828 32.9047 45.1128 33.1527 45.3502C33.4007 45.5876 33.5446 45.9131 33.553 46.2558H30.8238C30.8441 45.9048 31.0013 45.5757 31.2617 45.3388C31.5222 45.1019 31.8653 44.9761 32.2175 44.9884H32.2291ZM60.7136 46.7205V42H59.622V44.7321C59.4297 44.4839 59.1809 44.285 58.8963 44.1516C58.6116 44.0182 58.2992 43.9543 57.9849 43.9652C56.4744 43.9652 55.2503 45.1911 55.2503 46.7036C55.2503 48.2161 56.4744 49.442 57.9849 49.442C58.2993 49.4527 58.6117 49.3887 58.8964 49.2551C59.1811 49.1216 59.4298 48.9225 59.622 48.6741V49.3138H60.7141V46.721L60.7136 46.7205ZM62.6068 48.5812C62.8171 48.5777 63.0096 48.7018 63.0946 48.8955C63.1483 49.0234 63.1491 49.1673 63.0969 49.2957C63.0447 49.4242 62.9436 49.5268 62.8158 49.5812C62.7467 49.5957 62.6754 49.5957 62.6063 49.5812C62.5037 49.58 62.4034 49.5499 62.3171 49.4944C62.2308 49.4388 62.162 49.3602 62.1185 49.2674C62.0907 49.2031 62.0763 49.1339 62.0763 49.0638C62.0763 48.9938 62.0907 48.9245 62.1185 48.8603C62.1623 48.7629 62.2345 48.6809 62.3257 48.6249C62.4168 48.569 62.5227 48.5416 62.6296 48.5464L62.6068 48.5812ZM62.6068 49.5116C62.6605 49.5232 62.7155 49.5232 62.7692 49.5116C62.8174 49.4893 62.8608 49.4577 62.8968 49.4187C62.9415 49.3727 62.9744 49.3165 62.9926 49.255C63.0108 49.1934 63.0137 49.1284 63.0012 49.0655C62.9887 49.0026 62.961 48.9437 62.9206 48.8938C62.8802 48.8439 62.8282 48.8045 62.7692 48.779H62.4439C62.3608 48.817 62.2935 48.8824 62.2532 48.9642C62.2128 49.0459 62.202 49.139 62.2225 49.2278C62.243 49.3166 62.2936 49.3956 62.3657 49.4516C62.4378 49.5075 62.5271 49.5369 62.6184 49.5348L62.6068 49.5116ZM62.6068 48.8603C62.6518 48.8453 62.7005 48.8453 62.7455 48.8603C62.7538 48.8785 62.7581 48.8983 62.7581 48.9183C62.7581 48.9383 62.7538 48.9581 62.7455 48.9763C62.7573 49.0065 62.7573 49.04 62.7455 49.0701C62.7079 49.0825 62.6672 49.0825 62.6296 49.0701L62.7925 49.2558H62.6645L62.5137 49.0696V49.2558H62.409V48.8371L62.6068 48.8603ZM62.4904 48.9536V49.0812H62.6761H62.6063L62.4904 48.9536ZM56.4753 46.7326C56.4913 46.323 56.6676 45.9359 56.9664 45.6545C57.2652 45.3731 57.6626 45.2197 58.0735 45.2272C58.4844 45.2363 58.8754 45.4058 59.1626 45.6991C59.4497 45.9925 59.6102 46.3864 59.6095 46.7964C59.6103 47.2065 59.4499 47.6006 59.1628 47.894C58.8756 48.1875 58.4845 48.357 58.0735 48.3661C57.6626 48.3736 57.265 48.2202 56.9662 47.9386C56.6674 47.6571 56.4912 47.27 56.4753 46.8603C56.4753 46.8603 56.5102 46.7558 56.5218 46.7094L56.4753 46.7326ZM18.0856 46.7326V44.0929H16.9242V44.7326C16.7319 44.4842 16.4832 44.2851 16.1985 44.1515C15.9139 44.018 15.6014 43.954 15.287 43.9647C13.7766 43.9647 12.5525 45.1911 12.5525 46.7036C12.5525 48.2161 13.7766 49.442 15.287 49.442C15.6014 49.4527 15.9139 49.3887 16.1985 49.2551C16.4832 49.1216 16.7319 48.9225 16.9242 48.6741V49.3138H18.0856V46.7326ZM13.8585 46.7326C13.8758 46.3511 14.0421 45.9916 14.3218 45.7309C14.6015 45.4701 14.9724 45.3289 15.3551 45.3375C15.7377 45.3474 16.1013 45.5062 16.3681 45.7798C16.6349 46.0535 16.7839 46.4205 16.7832 46.8022C16.7839 47.184 16.6349 47.5509 16.3681 47.8246C16.1013 48.0983 15.7377 48.2571 15.3551 48.267C14.9724 48.2755 14.6015 48.1343 14.3218 47.8736C14.0421 47.6129 13.8758 47.2533 13.8585 46.8719V46.7326Z" fill="#231F20"/>
<path d="M24.4489 19.7679C24.4408 13.7188 27.2116 8.00319 31.9619 4.26792C23.8917 -2.08476 12.3032 -1.16199 5.3375 6.38935C-1.62642 13.9402 -1.62642 25.5822 5.3375 33.1335C12.3028 40.6844 23.893 41.6077 31.9624 35.2554C27.2148 31.5224 24.4444 25.8112 24.4489 19.767V19.7679Z" fill="#EB001B"/>
<path d="M63.8142 19.768C63.8098 27.31 59.507 34.189 52.7319 37.4845C49.4123 39.0996 45.7031 39.7473 42.0309 39.353C38.3587 38.9588 34.8726 37.5387 31.9736 35.256C36.7203 31.5193 39.4911 25.8077 39.4911 19.7618C39.4911 13.7158 36.7203 8.00417 31.9736 4.26756C34.8726 1.98487 38.3587 0.564737 42.0309 0.170496C45.7031 -0.223744 49.4123 0.423916 52.7319 2.03899C59.507 5.33497 63.8098 12.2131 63.8142 19.756V19.768Z" fill="#F79E1B"/>
<path d="M31.9619 35.2096C27.2358 31.46 24.4798 25.7533 24.4798 19.7154C24.4798 13.6774 27.2358 7.97075 31.9619 4.22119C36.7087 7.9578 39.4799 13.6694 39.4799 19.7154C39.4799 25.7614 36.7082 31.473 31.9619 35.2096Z" fill="#FF5F00"/>
<path d="M61.9332 31.9187V31.279H62.1883V31.1513H61.5385V31.279H61.8173V31.9187H61.9332ZM63.1989 31.9187V31.1509H63.0015L62.7688 31.6978L62.5369 31.1513H62.3624V31.9187H62.502V31.3955L62.711 31.8955H62.8619L63.0709 31.3955V31.9768L63.1989 31.9187Z" fill="#F79E1B"/>
</g>
<defs>
<clipPath id="clip0_3_461">
<rect width="64" height="50" fill="white"/>
</clipPath>
</defs>
</svg>
