<svg width="40" height="40" viewBox="0 0 40 40" fill="none" xmlns="http://www.w3.org/2000/svg">
<g clip-path="url(#clip0_3_412)">
<path d="M33.2812 5.70312H8.67188V34.2969H33.2812V5.70312Z" fill="white" stroke="black"/>
<path d="M20.1562 0.078125C9.11055 0.078125 0.15625 9.03242 0.15625 20.0781C0.15625 31.1238 9.11055 40.0781 20.1562 40.0781C31.202 40.0781 40.1562 31.1238 40.1562 20.0781C40.1562 9.03242 31.202 0.078125 20.1562 0.078125ZM30.2828 18.233C28.1591 18.233 26.0927 17.5438 24.5016 16.3775L24.4889 24.3072C24.4876 25.7765 24.0382 27.2105 23.2007 28.4178C22.3632 29.6251 21.1774 30.5483 19.8016 31.0641C18.4258 31.58 16.9254 31.664 15.5006 31.3049C14.0758 30.9459 12.7944 30.1609 11.8274 29.0546C10.8604 27.9483 10.2537 26.5735 10.0884 25.1135C9.92304 23.6535 10.2069 22.1778 10.9021 20.8833C11.5972 19.5888 12.6706 18.5371 13.9791 17.8685C15.2875 17.2 16.7687 16.9463 18.225 17.1415V21.0356C17.538 20.8327 16.8046 20.8512 16.1287 21.0885C15.4528 21.3258 14.8689 21.7699 14.4596 22.3578C14.0503 22.9456 13.8365 23.6475 13.8484 24.3637C13.8604 25.0799 14.0976 25.7742 14.5264 26.348C14.9551 26.9219 15.5537 27.3461 16.2371 27.5607C16.9206 27.7752 17.6542 27.7692 18.334 27.5433C19.0138 27.3175 19.6052 26.8833 20.0244 26.3025C20.4436 25.7216 20.6692 25.0235 20.6694 24.3072V8.61977H24.6752C24.6752 9.35613 24.8203 10.0853 25.1021 10.7656C25.3839 11.4459 25.7969 12.064 26.3176 12.5847C26.8383 13.1054 27.4564 13.5184 28.1367 13.8002C28.8171 14.082 29.5462 14.227 30.2826 14.227L30.2828 18.233Z" fill="black"/>
</g>
<defs>
<clipPath id="clip0_3_412">
<rect width="40" height="40" fill="white"/>
</clipPath>
</defs>
</svg>
