<svg width="12" height="12" viewBox="0 0 12 12" fill="none" xmlns="http://www.w3.org/2000/svg">
<g clip-path="url(#clip0_3_534)">
<path d="M5.75 1C3.405 1 1.5 2.905 1.5 5.25C1.5 7.595 3.405 9.5 5.75 9.5H6V11C8.43 9.83 10 7.5 10 5.25C10 2.905 8.095 1 5.75 1ZM6.25 8.25H5.25V7.25H6.25V8.25ZM6.45 5.86C6.445 5.865 6.44 5.875 6.435 5.885C6.41 5.925 6.385 5.965 6.365 6.005C6.355 6.02 6.35 6.04 6.345 6.06C6.33 6.095 6.315 6.13 6.305 6.165C6.27 6.27 6.255 6.38 6.255 6.505H5.25C5.25 6.25 5.29 6.035 5.35 5.855C5.35 5.85 5.35 5.845 5.355 5.84C5.36 5.82 5.375 5.81 5.38 5.79C5.41 5.71 5.445 5.64 5.49 5.57C5.505 5.545 5.525 5.52 5.54 5.495C5.555 5.475 5.565 5.45 5.58 5.435L5.585 5.44C6.005 4.89 6.69 4.72 6.745 4.1C6.79 3.61 6.44 3.135 5.96 3.035C5.44 2.925 4.97 3.23 4.81 3.675C4.74 3.855 4.575 4 4.37 4H4.27C3.97 4 3.75 3.705 3.835 3.415C4.11 2.505 5.02 1.87 6.05 2.02C6.895 2.145 7.57 2.84 7.715 3.685C7.935 4.905 6.9 5.2 6.45 5.86Z" fill="black"/>
</g>
<defs>
<clipPath id="clip0_3_534">
<rect width="12" height="12" fill="white"/>
</clipPath>
</defs>
</svg>
