<svg width="24" height="24" viewBox="0 0 24 24" fill="none" xmlns="http://www.w3.org/2000/svg">
<g clip-path="url(#clip0_3_556)">
<path d="M21 12C21 7.03125 16.9688 3 12 3C7.03125 3 3 7.03125 3 12C3 16.9688 7.03125 21 12 21C16.9688 21 21 16.9688 21 12Z" stroke="black" stroke-width="32" stroke-miterlimit="10"/>
<path d="M10.14 15.6769L15.5049 12.4359C15.5796 12.3904 15.6414 12.3263 15.6843 12.25C15.7272 12.1737 15.7497 12.0876 15.7497 12C15.7497 11.9124 15.7272 11.8263 15.6843 11.75C15.6414 11.6736 15.5796 11.6096 15.5049 11.5641L10.14 8.32312C10.0631 8.27705 9.97534 8.25227 9.8857 8.25131C9.79607 8.25035 9.70779 8.27326 9.62993 8.31768C9.55206 8.3621 9.48742 8.42643 9.44262 8.50408C9.39782 8.58172 9.37449 8.66989 9.37501 8.75953V15.2405C9.37449 15.3301 9.39782 15.4183 9.44262 15.4959C9.48742 15.5736 9.55206 15.6379 9.62993 15.6823C9.70779 15.7267 9.79607 15.7496 9.8857 15.7487C9.97534 15.7477 10.0631 15.7229 10.14 15.6769Z" fill="black"/>
</g>
<defs>
<clipPath id="clip0_3_556">
<rect width="24" height="24" fill="white"/>
</clipPath>
</defs>
</svg>
