<svg width="40" height="40" viewBox="0 0 40 40" fill="none" xmlns="http://www.w3.org/2000/svg">
<g clip-path="url(#clip0_3_418)">
<path d="M0.617188 20C0.617188 9.29688 9.29688 0.617188 20 0.617188C30.7031 0.617188 39.3828 9.29688 39.3828 20C39.3828 30.7031 30.7031 39.3828 20 39.3828C9.29688 39.3828 0.617188 30.7031 0.617188 20Z" fill="#D42428"/>
<path d="M33.7031 6.29688C41.2734 13.8672 41.2734 26.1406 33.7031 33.7031C26.1328 41.2734 13.8594 41.2734 6.29688 33.7031L33.7031 6.29688Z" fill="#CC202D"/>
<path d="M38.9922 23.8828L29.3984 14.2891L18.0859 15.5781L11.2422 26.1719L24.0313 38.9609C31.5469 37.3672 37.4609 31.4219 38.9922 23.8828Z" fill="#BA202E"/>
<path fill-rule="evenodd" clip-rule="evenodd" d="M30.1406 16.2578C30.1406 14.6328 28.8281 13.3203 27.2031 13.3203H13.4063C11.7813 13.3203 10.4688 14.6406 10.4688 16.2578V24.1484C10.4688 25.7734 11.7813 27.0937 13.4063 27.0937H27.1953C28.8203 27.0937 30.1328 25.7734 30.1328 24.1484V16.2578H30.1406ZM18.3359 23.5313V16.125L23.9531 19.8281L18.3359 23.5313Z" fill="white"/>
</g>
<defs>
<clipPath id="clip0_3_418">
<rect width="40" height="40" fill="white"/>
</clipPath>
</defs>
</svg>
