<svg width="18" height="14" viewBox="0 0 18 14" fill="none" xmlns="http://www.w3.org/2000/svg">
<g clip-path="url(#clip0_3_392)">
<path d="M12.226 2.35901C12.5956 2.36403 12.9604 2.44267 13.2987 2.59023C13.6369 2.73779 13.9416 2.95126 14.1947 3.2179C14.1947 3.2179 15.2691 3.0091 15.8626 2.59566C15.8626 2.59566 15.7135 3.41418 14.7249 4.0406H14.7333C14.8093 4.0406 15.3633 4.02668 16.2352 3.62299C16.2352 3.62299 16.0679 4.09489 14.9274 4.99276C14.9963 7.11705 13.9346 11.044 10.0056 12.4416C9.14265 12.7541 8.2314 12.9157 7.31256 12.919C5.84046 12.9257 4.39851 12.5062 3.16412 11.7122C3.37506 11.733 3.56491 11.733 3.75475 11.733C6.07787 11.733 7.20289 10.5526 7.14099 10.5526H7.05523C5.08647 10.5526 4.60694 8.68728 4.60694 8.68728C4.76461 8.78159 4.94755 8.82626 5.13147 8.81532C5.36919 8.81042 5.60538 8.77631 5.8346 8.71369C3.61272 8.19308 3.69569 6.08273 3.69569 6.08273C3.99594 6.28109 4.34728 6.39026 4.70819 6.39733C4.76755 6.39796 4.82686 6.39332 4.88537 6.38339C2.85616 4.79369 4.07819 2.89634 4.07819 2.89634C6.36475 5.52313 9.17582 5.6164 9.56256 5.6164H9.60898C9.40082 4.38304 9.91414 3.19841 11.2965 2.5539C11.5849 2.42281 11.8988 2.35626 12.2162 2.35901H12.226ZM17.1563 0.59668L15.3381 1.86066C15.0603 2.02544 14.7601 2.14968 14.4465 2.22955C13.8101 1.73761 13.0278 1.46661 12.2204 1.45835C11.769 1.45422 11.3223 1.54931 10.9126 1.73676C9.62164 2.33674 8.83691 3.37242 8.68082 4.61551C7.15256 4.3035 5.77551 3.48974 4.77287 2.30611L3.97131 1.38597L3.31037 2.40634C2.88428 3.10117 2.71528 3.92095 2.83225 4.72548L2.78022 6.0521C2.76854 6.89426 3.05121 7.71453 3.58037 8.37406L3.721 8.91694C3.9227 9.61802 4.33222 10.2431 4.89662 10.7113C4.52112 10.7926 4.13772 10.8327 3.75335 10.831C3.586 10.831 3.41303 10.8241 3.23866 10.8101L0.0141258 10.5443L2.62272 12.4416C4.0148 13.3483 5.64621 13.8281 7.31256 13.8211C8.33811 13.8184 9.35544 13.6394 10.3191 13.2921C12.2524 12.6092 13.8477 11.2187 14.7769 9.40694C15.4197 8.16966 15.783 6.8088 15.8415 5.41873C16.7738 4.62387 17.0297 4.11716 17.0986 3.92367L17.8186 1.89546L16.8343 2.34926L17.1563 0.59668Z" fill="black"/>
</g>
<defs>
<clipPath id="clip0_3_392">
<rect width="18" height="14" fill="white"/>
</clipPath>
</defs>
</svg>
