<svg width="18" height="18" viewBox="0 0 18 18" fill="none" xmlns="http://www.w3.org/2000/svg">
<g clip-path="url(#clip0_3_394)">
<path d="M13.6785 3.27295C13.4757 3.27295 13.2774 3.33309 13.1087 3.44578C12.9401 3.55847 12.8086 3.71864 12.731 3.90603C12.6534 4.09342 12.6331 4.29963 12.6727 4.49856C12.7123 4.69749 12.8099 4.88023 12.9533 5.02365C13.0967 5.16708 13.2795 5.26476 13.4784 5.30432C13.6774 5.34389 13.8836 5.32358 14.0709 5.24596C14.2584 5.16834 14.4185 5.0369 14.5312 4.86825C14.6439 4.6996 14.704 4.50132 14.704 4.29849C14.704 4.16381 14.6775 4.03045 14.626 3.90603C14.5744 3.7816 14.4989 3.66856 14.4037 3.57332C14.3084 3.47809 14.1954 3.40255 14.0709 3.35101C13.9466 3.29947 13.8132 3.27295 13.6785 3.27295Z" fill="black"/>
<path fill-rule="evenodd" clip-rule="evenodd" d="M6.49704 5.20973C7.25173 4.70355 8.13954 4.43244 9.04827 4.43067C9.65242 4.42949 10.2509 4.54745 10.8095 4.77779C11.368 5.00813 11.8757 5.34633 12.3034 5.77305C12.7311 6.19977 13.0705 6.70663 13.3021 7.26463C13.5338 7.82264 13.6531 8.42086 13.6533 9.025C13.6537 9.93375 13.3846 10.8222 12.8802 11.5781C12.3758 12.3339 11.6587 12.9233 10.8194 13.2717C9.9801 13.6202 9.05637 13.7119 8.16493 13.5355C7.2735 13.3591 6.45437 12.9223 5.81105 12.2805C5.16774 11.6388 4.72912 10.8206 4.55061 9.92958C4.37212 9.03858 4.46176 8.11464 4.8082 7.27455C5.15465 6.43446 5.74235 5.71591 6.49704 5.20973ZM10.807 6.39503C10.2863 6.04747 9.67426 5.86214 9.04827 5.86249C8.20996 5.86391 7.40637 6.19756 6.81358 6.79034C6.2208 7.38312 5.88715 8.18669 5.88573 9.025C5.88538 9.65099 6.07071 10.2631 6.41827 10.7837C6.76583 11.3044 7.26001 11.7102 7.8383 11.9499C8.41656 12.1896 9.05294 12.2525 9.66698 12.1304C10.2809 12.0083 10.8449 11.707 11.2876 11.2643C11.7302 10.8216 12.0316 10.2577 12.1537 9.64371C12.2757 9.02975 12.2129 8.39336 11.9732 7.81505C11.7335 7.23677 11.3276 6.74259 10.807 6.39503Z" fill="black"/>
<path fill-rule="evenodd" clip-rule="evenodd" d="M12.4005 0.22998H5.59944C4.17671 0.234229 2.81347 0.801288 1.80745 1.80731C0.801426 2.81333 0.234367 4.17657 0.230118 5.5993V12.4004C0.234367 13.8231 0.801426 15.1864 1.80745 16.1924C2.81347 17.1985 4.17671 17.7655 5.59944 17.7698H12.4005C13.8233 17.7655 15.1865 17.1985 16.1926 16.1924C17.1986 15.1864 17.7657 13.8231 17.7699 12.4004V5.5993C17.7657 4.17657 17.1986 2.81333 16.1926 1.80731C15.1865 0.801288 13.8233 0.234229 12.4005 0.22998ZM12.4005 1.6618C13.4449 1.6618 14.4464 2.07664 15.1848 2.81507C15.9232 3.55349 16.3381 4.55501 16.3381 5.5993V12.4004C16.3381 13.4447 15.9232 14.4463 15.1848 15.1847C14.4464 15.9231 13.4449 16.338 12.4005 16.338H5.59944C4.55515 16.338 3.55363 15.9231 2.8152 15.1847C2.07678 14.4463 1.66194 13.4447 1.66194 12.4004V5.5993C1.66194 4.55501 2.07678 3.55349 2.8152 2.81507C3.55363 2.07664 4.55515 1.6618 5.59944 1.6618H12.4005Z" fill="black"/>
</g>
<defs>
<clipPath id="clip0_3_394">
<rect width="18" height="18" fill="white"/>
</clipPath>
</defs>
</svg>
