<svg width="32" height="32" viewBox="0 0 32 32" fill="none" xmlns="http://www.w3.org/2000/svg">
<g clip-path="url(#clip0_3_792)">
<path d="M16 1.33331C12.8174 1.33331 9.76515 2.5976 7.51472 4.84803C5.26428 7.09847 4 10.1507 4 13.3333V22.6666C4 24.88 5.78667 26.6666 8 26.6666H12V16H6.66667V13.3333C6.66667 8.17331 10.84 3.99998 16 3.99998C21.16 3.99998 25.3333 8.17331 25.3333 13.3333V16H20V26.6666H25.3333V28H16V30.6666H24C26.2133 30.6666 28 28.88 28 26.6666V13.3333C28 10.1507 26.7357 7.09847 24.4853 4.84803C22.2348 2.5976 19.1826 1.33331 16 1.33331Z" fill="black"/>
</g>
<defs>
<clipPath id="clip0_3_792">
<rect width="32" height="32" fill="white"/>
</clipPath>
</defs>
</svg>
