<svg width="64" height="64" viewBox="0 0 64 64" fill="none" xmlns="http://www.w3.org/2000/svg">
<path d="M11.4709 26.1593C11.2615 25.7391 10.9301 25.3924 10.5187 25.1322C10.0896 24.8694 9.58302 24.6853 9.00408 24.5761C8.41498 24.4694 7.73447 24.4212 6.94604 24.4136L3.30605 24.4161C2.92771 24.4212 2.55698 24.7157 2.46811 25.0814L0.0190189 35.7487C-0.0698541 36.1093 0.167564 36.4114 0.545909 36.4114H2.28909C2.66743 36.4114 3.04197 36.1181 3.12577 35.7487L3.72375 33.1587C3.80374 32.7981 4.17701 32.4972 4.55916 32.4972H5.05812C7.1898 32.4947 8.8403 32.0592 10.0261 31.187C11.2183 30.3135 11.8061 29.1594 11.8061 27.7298C11.8049 27.1039 11.702 26.5783 11.4709 26.1593ZM7.71161 29.6444C7.18472 30.0303 6.45216 30.2233 5.50756 30.2233H5.08097C4.70136 30.2233 4.46902 29.9237 4.55154 29.5581L5.07589 27.2931C5.14953 26.9299 5.53169 26.6291 5.90622 26.6316L6.47755 26.6278C7.1441 26.6278 7.65321 26.7433 7.99347 26.9668C8.32992 27.1877 8.49877 27.5394 8.49623 28.0053C8.50639 28.7138 8.23596 29.2584 7.71161 29.6444Z" fill="black"/>
<path d="M61.1637 25.249L61.0545 25.282L60.9085 25.3023L60.7295 25.2743L60.6381 25.1855L60.5962 25.0458L60.5936 24.8363V24.0606H61.1764V23.8206H60.5936V23.3369H60.3054V23.8206H60.1099V24.0606H60.3054V24.9633L60.44 25.4102L60.8361 25.5524L61.0025 25.5384L61.1789 25.5041V25.249H61.1637Z" fill="black"/>
<path d="M63.8667 23.9439L63.4503 23.7725L63.143 23.8347L62.8307 24.0454L62.6491 23.8436L62.3546 23.7737L62.0715 23.8359L61.8036 24.0086V23.8207H61.5204V25.5156H61.8023V24.2498L62.0397 24.1026L62.2759 24.0442L62.4688 24.0784L62.5641 24.1762L62.606 24.3387L62.6199 24.5482V25.5169H62.9031V24.4327L62.898 24.3425L62.8929 24.26L63.1341 24.1064L63.3728 24.0467L63.5594 24.081L63.661 24.1787L63.6966 24.3425L63.7156 24.5495V25.5182H64V24.4174L63.8667 23.9439Z" fill="black"/>
<path d="M19.8771 27.684C19.2194 27.3133 18.1809 27.1279 16.7614 27.1279C16.0593 27.1279 15.3598 27.1825 14.6526 27.2917C14.1308 27.3717 14.08 27.3869 13.7588 27.4568C13.0961 27.6015 12.992 28.263 12.992 28.263L12.7787 29.1403C12.658 29.7002 12.9805 29.6786 13.1151 29.6316C13.4046 29.5453 13.5658 29.4564 14.1575 29.3244C14.7224 29.1961 15.3179 29.0996 15.7902 29.106C16.4872 29.106 17.0204 29.1796 17.3759 29.3294C17.7263 29.4818 17.9016 29.7433 17.9016 30.1217L17.8711 30.368L17.6197 30.5229C16.6307 30.5851 15.9159 30.6765 15.0487 30.8022C14.2006 30.9203 13.4566 31.1272 12.8383 31.4103C12.1743 31.7024 11.6817 32.0947 11.3376 32.5936C11.005 33.0951 10.8387 33.7033 10.8387 34.4168C10.8387 35.0884 11.0799 35.6432 11.5484 36.0724C12.0194 36.4939 12.6415 36.6996 13.3855 36.6996C13.8566 36.697 14.2209 36.6602 14.4799 36.598L15.3242 36.3072L16.039 35.9111L16.6967 35.4769L16.7056 35.4896L16.6396 35.7689L16.6357 35.7804V35.7829C16.5646 36.1231 16.7703 36.4025 17.1017 36.4355L17.108 36.4431H17.1385H18.4754H18.7268L18.7497 36.4329C19.0975 36.3923 19.4238 36.113 19.5 35.7804L20.7709 30.2791L20.8369 29.8309L20.8674 29.4107C20.8724 28.6312 20.536 28.0535 19.8771 27.684ZM17.0661 33.8696L16.7944 34.2276L16.1089 34.5818C15.7864 34.7126 15.4804 34.7786 15.1973 34.7786C14.7681 34.7786 14.4317 34.7164 14.2044 34.5895L13.868 33.9356C13.868 33.5814 13.9492 33.3008 14.1232 33.085L14.8621 32.5822C15.1782 32.4755 15.5642 32.3854 16.0111 32.3232C16.4098 32.2737 17.1969 32.1835 17.2998 32.181L17.4204 32.393C17.3962 32.5136 17.1728 33.4481 17.0661 33.8696Z" fill="black"/>
<path d="M51.5388 27.6916C50.8773 27.3209 49.84 27.1343 48.4244 27.1343C47.7223 27.1343 47.0215 27.1889 46.3168 27.3019C45.7937 27.378 45.7417 27.3945 45.4192 27.4631C44.7577 27.6066 44.6549 28.2706 44.6549 28.2706L44.4416 29.1466C44.3223 29.7065 44.6371 29.6811 44.7844 29.638C45.0751 29.5516 45.2313 29.4666 45.8179 29.3294C46.3803 29.2025 46.9808 29.1085 47.4544 29.1111C48.1489 29.1111 48.6821 29.186 49.0363 29.3358C49.3893 29.4881 49.562 29.7522 49.562 30.1268L49.5353 30.3718L49.2865 30.5305C48.2873 30.5902 47.5712 30.6816 46.7129 30.8073C45.8674 30.9253 45.1209 31.131 44.5013 31.4154C43.8398 31.7087 43.3409 32.101 43.0006 32.6012C42.6641 33.1027 42.5004 33.7096 42.5004 34.4168C42.5004 35.0935 42.7391 35.6483 43.2139 36.0749C43.6875 36.4951 44.3032 36.7059 45.0472 36.7059C45.5157 36.7008 45.8801 36.6704 46.1404 36.6031L46.9821 36.3161L47.7033 35.92L48.3558 35.4807L48.3673 35.4947L48.3076 35.7765L48.3012 35.7816L48.3038 35.7867C48.2251 36.127 48.432 36.4088 48.7672 36.4393L48.7697 36.4456H48.8002C49.0198 36.4456 49.7791 36.4456 50.1409 36.4456H50.3872L50.4139 36.4367C50.7579 36.3948 51.083 36.1155 51.1553 35.7791L52.43 30.2855L52.4973 29.8347L52.5341 29.4132C52.5354 28.6362 52.2028 28.0611 51.5388 27.6916ZM48.7342 33.8772L48.451 34.239L47.7718 34.5907C47.4493 34.7202 47.1421 34.7875 46.864 34.7875C46.4209 34.7875 46.0934 34.724 45.8725 34.5971L45.5322 33.9458C45.5322 33.5903 45.6147 33.3122 45.781 33.0926C45.9499 32.8856 46.2076 32.7155 46.5276 32.5911C46.8399 32.4844 47.2259 32.3981 47.6753 32.3333C48.0714 32.2838 48.8561 32.1912 48.9576 32.1899L49.0808 32.4019C49.063 32.5225 48.8383 33.4532 48.7342 33.8772Z" fill="black"/>
<path d="M43.1275 26.1986C42.9092 25.7759 42.5816 25.4343 42.1677 25.1677C41.7437 24.9036 41.2409 24.7183 40.6531 24.6116C40.0754 24.5088 39.386 24.4529 38.6026 24.4517L34.9576 24.4542C34.5779 24.4605 34.2136 24.7551 34.126 25.1169L31.6743 35.7893C31.5855 36.1512 31.8292 36.4508 32.2 36.4508L33.9457 36.4482C34.3164 36.4508 34.696 36.1537 34.7836 35.788L35.374 33.1968C35.4603 32.8362 35.8349 32.5328 36.2119 32.5353H36.7109C38.8451 32.5353 40.4994 32.096 41.6903 31.2263C42.8673 30.3465 43.4627 29.1949 43.4627 27.7641C43.4564 27.1407 43.3484 26.6138 43.1275 26.1986ZM39.3682 29.6888C38.8426 30.0672 38.1087 30.2601 37.1692 30.2601H36.735C36.3605 30.264 36.118 29.9592 36.2018 29.5961L36.7299 27.335C36.8074 26.9731 37.1857 26.6697 37.5628 26.6735L38.1278 26.6697C38.7981 26.6735 39.3009 26.7839 39.6437 27.0074C39.9852 27.2308 40.1465 27.5813 40.1503 28.0459C40.1541 28.7544 39.8913 29.3003 39.3682 29.6888Z" fill="black"/>
<path d="M58.0747 25.2021C58.1547 24.8377 57.9262 24.5419 57.5516 24.5469H55.99C55.6701 24.5469 55.3819 24.7844 55.2409 25.0764L55.1546 25.2109L55.0759 25.5563L52.8934 35.4771L52.8223 35.7818L52.8249 35.7894C52.7525 36.1157 52.9531 36.362 53.2629 36.4089L53.2895 36.4458H54.9108C55.2282 36.4458 55.5266 36.2045 55.6624 35.9075L55.7462 35.7805L58.0798 25.2033L58.0747 25.2021Z" fill="black"/>
<path d="M31.7226 27.2614C31.31 27.2665 29.6328 27.2614 29.6328 27.2614C29.257 27.2614 28.7746 27.5648 28.5359 27.9267C28.5359 27.9267 26.0398 32.2103 25.7973 32.6407L25.5078 32.6369L24.7308 27.9559C24.6445 27.5877 24.2598 27.2728 23.7812 27.2728L22.2195 27.2753C21.8437 27.2753 21.6127 27.575 21.6977 27.9406C21.6977 27.9406 22.8835 34.6886 23.121 36.2769C23.2314 37.1529 23.107 37.3091 23.107 37.3091L21.5631 39.9981C21.3346 40.3638 21.4578 40.6622 21.8323 40.6622L23.6377 40.6596C24.0135 40.6596 24.5074 40.3638 24.7308 39.9969L31.6756 28.2504C31.6756 28.2504 32.3434 27.2474 31.7226 27.2614Z" fill="black"/>
</svg>
