<svg width="42" height="42" viewBox="0 0 42 42" fill="none" xmlns="http://www.w3.org/2000/svg">
<g clip-path="url(#clip0_3_493)">
<path d="M41.9077 31.2898L41.9098 18.134C41.9098 17.9118 41.7294 17.7314 41.5072 17.7314H39.5275C39.3053 17.7314 39.1249 17.9118 39.1249 18.134V23.5707C38.3895 22.9298 37.3599 22.5669 36.1961 22.5669C34.8638 22.5669 33.6099 23.0887 32.6651 24.0409C31.5228 25.1875 30.9012 26.8838 30.9141 28.8163C30.9141 32.2571 33.0419 34.7532 35.9728 34.7532C37.3266 34.7532 38.5516 34.2326 39.3815 33.3458L39.418 34.122C39.4298 34.3356 39.6059 34.5053 39.8206 34.5053H41.5963C41.7101 34.5053 41.8175 34.4569 41.8926 34.3732C41.9699 34.2895 42.0075 34.1767 41.9989 34.0651C41.9205 33.2137 41.9077 31.9608 41.9077 31.2898ZM39.1228 29.5324C39.1228 29.8469 39.1013 30.0735 39.0465 30.2935C38.7491 31.5196 37.7389 32.3473 36.5354 32.3473C34.4612 32.3473 33.7226 30.4761 33.7226 28.724C33.7226 26.4147 34.8445 24.9202 36.5794 24.9202C37.9633 24.9202 38.8146 25.9144 39.0487 26.9182C39.1013 27.1232 39.1228 27.426 39.1228 27.6439V29.5324Z" fill="black"/>
<path d="M22.1761 31.4882V31.485L22.175 27.414C22.175 24.2834 20.5636 22.5581 17.6338 22.5581C16.2316 22.5581 14.8478 22.936 13.8386 23.5898C13.684 23.6929 13.6174 23.8861 13.6776 24.0601L14.1274 25.3645C14.1671 25.4815 14.2595 25.5738 14.3765 25.6135C14.4913 25.6533 14.6234 25.6382 14.7265 25.5717C15.4468 25.1047 16.4249 24.8255 17.3417 24.8255C18.6773 24.8255 19.3547 25.4632 19.4095 26.7677C13.727 26.8643 12.867 29.5858 12.867 31.2198C12.867 32.973 14.1489 34.7487 16.5988 34.7487C17.7819 34.7487 18.8866 34.329 19.6897 33.5957L19.753 34.1443C19.7766 34.3483 19.9495 34.5029 20.1535 34.5029H21.9539C22.072 34.5029 22.1869 34.4492 22.262 34.3569C22.3382 34.2646 22.3715 34.1411 22.349 34.0241C22.233 33.3853 22.1761 32.5532 22.1761 31.4882ZM19.4578 30.4361C19.4578 30.5811 19.4256 30.7593 19.3676 30.9353C19.1239 31.6504 18.3874 32.4845 17.1174 32.4845C16.7738 32.4845 15.653 32.3761 15.653 30.9965C15.653 29.6481 16.9327 28.9599 19.4589 28.9438L19.4578 30.4361Z" fill="black"/>
<path d="M22.3146 13.8376H18.3295C18.1072 13.8376 17.9269 14.018 17.9269 14.2402V15.4974C17.9269 15.7196 18.1072 15.9 18.3295 15.9H20.3875V18.833C20.1127 18.9189 19.592 19.0273 18.7063 19.0273C16.0341 19.0273 14.4398 17.3515 14.4398 14.544C14.4398 11.7902 16.1501 10.0789 18.9049 10.0789C20.1632 10.0789 20.9082 10.3387 21.4171 10.5653C21.5223 10.6125 21.6447 10.6104 21.7499 10.5631C21.8541 10.5148 21.9346 10.4236 21.9657 10.3119L22.3447 9.03648C22.4005 8.84753 22.3125 8.6457 22.1343 8.55981C21.5374 8.27101 20.3865 7.96289 18.9425 7.96289C14.7995 7.96289 12.0028 10.6351 11.9835 14.617C11.9835 16.5548 12.6426 18.3037 13.7957 19.4181C15.0003 20.5669 16.572 21.1262 18.6011 21.1262C20.2029 21.1262 21.5814 20.7526 22.4542 20.4391C22.612 20.3811 22.7205 20.2298 22.7205 20.0601V14.2402C22.7194 14.019 22.539 13.8387 22.3146 13.8376Z" fill="black"/>
<path d="M11.6614 31.6913C11.5519 31.6365 11.4241 31.6408 11.3178 31.6934C10.5684 32.0563 9.41218 32.2828 8.29994 32.2828C4.90417 32.2828 2.87508 30.1561 2.87508 26.5885C2.87401 22.9243 4.93638 20.7364 8.38798 20.7364C9.46372 20.7364 10.4879 20.9457 11.2716 21.3258C11.3758 21.3762 11.5003 21.3784 11.6098 21.3322C11.7183 21.285 11.7999 21.1916 11.8331 21.0778L12.3055 19.4803C12.3603 19.2956 12.2765 19.0981 12.1048 19.009C11.7805 18.8393 10.548 18.2886 8.32034 18.2886C3.42046 18.2886 0 21.7284 0 26.6551C0 31.5603 3.09731 34.7296 7.89305 34.7296C9.85558 34.7296 11.3414 34.3356 12.0779 33.9684C12.2475 33.8825 12.3356 33.6893 12.2873 33.5046L11.8825 31.9554C11.8525 31.8384 11.7709 31.7418 11.6614 31.6913Z" fill="black"/>
<path d="M25.4484 8.07324C24.6561 8.07324 24.0581 8.67123 24.0581 9.46354C24.057 10.2322 24.6518 10.8356 25.4108 10.8356C25.8263 10.8356 26.1946 10.6874 26.4576 10.419C26.7034 10.1635 26.8323 9.8189 26.8183 9.46354C26.8183 8.65835 26.2418 8.07324 25.4484 8.07324Z" fill="black"/>
<path d="M38.4743 13.5131C38.6966 13.5131 38.8769 13.3328 38.8769 13.1105V11.907C38.8769 11.6848 38.6966 11.5044 38.4743 11.5044H36.6159V9.41094C36.6159 9.28533 36.559 9.16724 36.4592 9.09209C36.3583 9.01479 36.2284 8.9901 36.1103 9.0223L34.5654 9.43564C34.3904 9.48287 34.2691 9.64177 34.2691 9.82428V11.5044H33.3232C33.1912 11.5044 33.0806 11.5721 33.0087 11.6687C32.9367 11.571 32.824 11.5044 32.692 11.5044H30.9935V11.439C30.9935 9.3272 31.9286 9.3272 32.2797 9.3272C32.6039 9.3272 32.8831 9.38088 33.1139 9.48824C33.2255 9.53978 33.3597 9.53763 33.4682 9.47965C33.5798 9.42168 33.6593 9.31647 33.6797 9.193L33.8955 7.97126C33.9266 7.78553 33.8289 7.60087 33.6518 7.52894C33.4467 7.44412 32.8884 7.24658 32.153 7.24658C31.2179 7.24658 30.3666 7.57403 29.7568 8.16558C29.0063 8.87952 28.6241 9.99927 28.6241 11.4926L27.8039 11.5034C27.5817 11.5034 27.4013 11.6837 27.4013 11.906V13.1095C27.4013 13.3317 27.5817 13.5121 27.8039 13.5121H28.6231V20.5999C28.6231 20.8222 28.8034 21.0025 29.0256 21.0025H30.5877C30.81 21.0025 30.9903 20.8222 30.9903 20.5999V13.5121H32.6887C32.8197 13.5121 32.9325 13.4444 33.0055 13.3478C33.0774 13.4455 33.1901 13.5121 33.32 13.5121H34.2659V17.8515C34.2659 19.0733 34.4945 19.8806 34.9744 20.3788C35.4339 20.9048 36.1285 21.1829 36.9831 21.1829C37.5983 21.1829 38.1512 21.0948 38.5377 20.937C38.6944 20.8715 38.7975 20.7127 38.7846 20.5398L38.7137 19.3546C38.7073 19.2343 38.6461 19.1237 38.5495 19.0529C38.4496 18.9831 38.3251 18.9584 38.2102 18.9906C38.0503 19.0336 37.7776 19.084 37.3986 19.084C37.0024 19.084 36.6159 18.9852 36.6159 17.7989V13.5131H38.4743Z" fill="black"/>
<path d="M30.4449 22.6433C29.2135 22.333 27.8694 22.8913 27.0417 23.982L27.018 23.1994C27.0095 22.9825 26.8334 22.8107 26.6154 22.8107H24.8848C24.7732 22.8107 24.6669 22.8569 24.5917 22.9385C24.5166 23.019 24.4768 23.1296 24.4844 23.2391C24.5456 24.1592 24.5724 25.1995 24.5724 26.6102V34.1028C24.5724 34.325 24.7528 34.5054 24.975 34.5054H26.93C27.1522 34.5054 27.3326 34.325 27.3326 34.1028V28.3C27.3326 27.994 27.3766 27.6967 27.4163 27.4487C27.6622 26.0841 28.5297 25.2381 29.6752 25.2381C29.9039 25.2381 30.0799 25.2553 30.2624 25.2972C30.3805 25.3208 30.5083 25.2929 30.6006 25.2177C30.6951 25.1426 30.7509 25.0245 30.7509 24.9053V23.0373C30.7509 22.8483 30.6242 22.6873 30.4449 22.6433Z" fill="black"/>
<path d="M26.2375 11.5024H24.6583C24.436 11.5024 24.2557 11.6828 24.2557 11.905V20.599C24.2557 20.8212 24.436 21.0016 24.6583 21.0016H26.2375C26.4598 21.0016 26.6401 20.8212 26.6401 20.599V11.905C26.6401 11.6828 26.4598 11.5024 26.2375 11.5024Z" fill="black"/>
</g>
<defs>
<clipPath id="clip0_3_493">
<rect width="42" height="42" fill="white"/>
</clipPath>
</defs>
</svg>
