<svg width="64" height="64" viewBox="0 0 64 64" fill="none" xmlns="http://www.w3.org/2000/svg">
<g clip-path="url(#clip0_3_430)">
<path d="M25.626 22.4766L22.3734 41.5639H27.5754L30.8306 22.4766H25.626Z" fill="black"/>
<path d="M18.0116 22.4977L12.9167 35.5147L12.3735 33.5492C11.3687 31.181 8.51612 27.7799 5.16721 25.6365L9.82598 41.5542L15.3304 41.5449L23.5227 22.4937L18.0116 22.4977Z" fill="black"/>
<path d="M10.3986 23.8637C10.0962 22.701 9.21988 22.3545 8.13212 22.313H0.066898L0 22.693C6.27637 24.2156 10.4294 27.8843 12.1527 32.2955L10.3986 23.8637Z" fill="black"/>
<path d="M41.3738 26.1356C43.0756 26.1088 44.3092 26.4808 45.2672 26.8661L45.7368 27.0868L46.4406 22.9499C45.4104 22.5632 43.7955 22.1484 41.7805 22.1484C36.6401 22.1484 33.0169 24.7374 32.9888 28.4476C32.9553 31.189 35.5697 32.7197 37.5445 33.6335C39.5715 34.5701 40.2512 35.1655 40.2418 36.0017C40.2258 37.2794 38.6256 37.8655 37.1311 37.8655C35.0479 37.8655 33.9414 37.5778 32.2328 36.866L31.5625 36.5609L30.8306 40.8331C32.0482 41.3669 34.2946 41.8258 36.6267 41.8499C42.0949 41.8499 45.6485 39.2917 45.686 35.3273C45.7087 33.1585 44.3213 31.5035 41.3149 30.1454C39.4953 29.2597 38.3821 28.671 38.3928 27.7772C38.3928 26.9838 39.3374 26.1356 41.3738 26.1356Z" fill="black"/>
<path d="M59.7908 22.498H55.7716C54.5232 22.498 53.5947 22.8379 53.0461 24.0822L45.3221 41.5747H50.785C50.785 41.5747 51.6761 39.2226 51.8781 38.7074C52.4762 38.7074 57.7838 38.7155 58.5398 38.7155C58.695 39.3818 59.174 41.5747 59.174 41.5747H64L59.7908 22.498ZM53.3753 34.8006C53.8034 33.7048 55.4478 29.4661 55.4478 29.4661C55.4197 29.5183 55.8719 28.3623 56.1408 27.6438L56.4914 29.2895C56.4914 29.2895 57.4882 33.8466 57.6969 34.8006H53.3753Z" fill="black"/>
</g>
<defs>
<clipPath id="clip0_3_430">
<rect width="64" height="64" fill="white"/>
</clipPath>
</defs>
</svg>
